<svg width="37" height="29" viewBox="0 0 37 29" xmlns="http://www.w3.org/2000/svg"><title>Group 2</title><path d="M27.014.672c.48 1.092.792 2.906.327 4.235 1.903 1.623 2.556 5.57 1.638 8.795 2.71.207 5.938-.1 8.022.732-1.948-.25-4.608-.74-7.12-.57-.477.032-1.182-.018-1.147.65 2.908.23 5.798.478 8.186 1.223-2.37-.386-5.244-.976-8.187-1.058-1.216 2.398-3.662 3.577-7.04 3.825.364.79 1.06 1.09 1.23 2.362.252 1.898-.398 4.68.243 5.944.308.608.81.624 1.147 1.142-.827.98-2.878-.11-3.112-1.14-.4-1.767.61-4.504-.49-5.7.08 1.925-.454 4.63.083 6.35.212.677.823.938.655 1.55-3.845.39-2.238-4.978-2.866-8.146-.58.042-.325.87-.327 1.222-.017 3.093.633 7.336-2.7 6.923-.1-.65.446-.87.653-1.464.61-1.74-.113-4.334.165-6.435-1.272.96.134 4.31-.655 6.027-.454.988-1.918 1.418-3.028.977.144-.736.904-.617 1.227-1.302.45-.956.003-2.333.164-3.746-2.355.47-4.182-.068-5.076-1.548-.4-.663-.5-1.447-.982-2.035-.48-.59-1.25-.668-1.473-1.465 2.916-.702 3.028 3.002 5.647 3.093.804.03 1.22-.23 1.965-.405.208-.934.653-1.63 1.31-2.118-3.26-.446-5.952-1.46-7.204-3.907-2.963.145-5.675.54-8.187 1.14 2.28-.83 5.093-1.126 8.106-1.223-.177-1.068-1.734-.774-2.7-.733-1.797.08-4.058.302-5.486.57 2.07-.738 4.974-.646 7.777-.65-.857-2.69-.56-6.96 1.31-8.552-.53-1.335-.365-3.52.327-4.56 2.088.094 3.355 1.004 4.667 1.873 1.627-.462 3.338-.692 5.567-.57.937.052 1.912.473 2.618.407.693-.065 1.457-.843 2.13-1.14.875-.386 1.616-.534 2.62-.57z" fill-rule="nonzero" fill="#FFF8F7"/></svg>