<svg width="28" height="28" viewBox="0 0 28 28" xmlns="http://www.w3.org/2000/svg"><title>Group 4</title><path d="M6.655 21.79c.662.66 1.065 1.56 1.068 2.56-.003.997-.406 1.895-1.066 2.554h-.002c-.662.66-1.565 1.062-2.57 1.062-1.004 0-1.905-.404-2.566-1.062-.66-.66-1.067-1.556-1.067-2.555 0-1 .406-1.9 1.066-2.562.66-.658 1.562-1.064 2.565-1.064 1.005 0 1.907.407 2.57 1.065zm0-.002zM1.52 26.906v-.002h-.002l.002.002zM.456 9.944v5.224c3.41.002 6.636 1.342 9.05 3.76 2.414 2.41 3.748 5.64 3.753 9.063V28h5.247c-.004-4.976-2.027-9.484-5.298-12.757C9.94 11.97 5.432 9.947.455 9.943zM.466.64v5.222c12.19.01 22.1 9.935 22.11 22.138h5.236c-.003-7.542-3.07-14.375-8.023-19.333C14.832 3.71 8.004.644.465.64z" fill-rule="nonzero" fill="#FFF8F7"/></svg>