<svg width="40" height="29" viewBox="0 0 40 29" xmlns="http://www.w3.org/2000/svg"><title>Group 3</title><path d="M35.468 12.75c2.246-.184 3.77-1.206 4.357-2.592-.81.498-3.326 1.04-4.715.524-.07-.326-.145-.636-.22-.916-1.058-3.887-4.682-7.02-8.48-6.64.307-.125.62-.24.93-.344.417-.15 2.87-.55 2.484-1.414-.326-.762-3.322.575-3.886.75.744-.28 1.976-.762 2.108-1.618-1.14.157-2.26.696-3.127 1.48.312-.336.55-.746.6-1.187-3.044 1.944-4.822 5.864-6.26 9.667-1.13-1.095-2.132-1.958-3.03-2.436-2.52-1.352-5.533-2.762-10.263-4.517-.145 1.565.774 3.645 3.422 5.03-.574-.078-1.624.094-2.463.295.342 1.792 1.458 3.27 4.48 3.983-1.38.092-2.095.406-2.742 1.083.63 1.247 2.164 2.714 4.925 2.413-3.07 1.324-1.252 3.774 1.246 3.41-4.26 4.4-10.98 4.076-14.836.395 10.072 13.724 31.965 8.117 35.228-5.102 2.444.02 3.88-.847 4.772-1.803-1.408.24-3.45-.008-4.532-.46z" fill-rule="nonzero" fill="#FFF8F7"/></svg>